<svg width="389" height="206" viewBox="0 0 389 206" fill="none" xmlns="http://www.w3.org/2000/svg">
<path d="M264.227 44.1853V53.1418C267.518 52.5447 271.109 51.9476 274.4 51.9476C276.495 51.9476 278.59 52.2462 280.684 52.2462V41.7969C274.999 42.0954 269.613 42.6925 264.227 44.1853Z" fill="#328D2E"/>
<path d="M337.236 106.881H327.062C327.062 109.568 326.763 112.255 326.164 114.942H337.834C337.834 114.643 337.834 114.643 337.834 114.345C337.834 111.658 337.535 109.269 337.236 106.881Z" fill="#E73B2B"/>
<path d="M326.167 114.643C326.766 111.956 327.065 109.269 327.065 106.582H310.907C311.505 108.97 311.505 111.359 311.505 114.046C311.505 120.315 310.009 126.286 307.316 131.66C310.607 134.049 312.702 137.93 312.702 142.11C312.702 149.275 307.017 154.947 299.835 154.947C295.347 154.947 291.756 152.857 289.362 149.573C283.976 152.26 277.991 153.753 271.707 153.753C269.313 153.753 266.92 153.454 264.227 153.156V179.727C266.62 180.026 269.014 180.026 271.707 180.026C289.96 180.026 306.418 172.562 318.387 160.62C330.357 148.976 337.837 132.556 337.837 114.643H326.167Z" fill="#EB5893"/>
<path d="M307.316 131.959C305.222 130.466 302.529 129.57 299.836 129.57C292.654 129.57 286.969 135.243 286.969 142.408C286.969 145.095 287.866 147.782 289.363 149.872C293.253 147.782 296.843 145.393 299.836 142.408C302.828 139.124 305.222 135.541 307.316 131.959Z" fill="#00A552"/>
<path d="M299.832 155.246C307.014 155.246 312.699 149.573 312.699 142.408C312.699 137.93 310.605 134.347 307.313 131.959C305.219 135.84 302.825 139.423 299.832 142.408C296.84 145.394 293.249 148.081 289.359 149.872C291.753 153.156 295.344 155.246 299.832 155.246Z" fill="#971D40"/>
<path d="M330.057 49.2606C315.993 34.9302 296.244 25.9736 274.4 25.9736C271.109 25.9736 267.518 26.2722 264.227 26.5707V44.1852C269.613 42.6925 274.999 42.0954 280.684 42.0954V52.5446C288.165 53.4403 295.047 56.1273 301.331 59.7099C301.63 59.4113 301.93 58.8142 302.229 58.5157C307.316 53.4403 315.395 53.4403 320.482 58.5157C325.569 63.591 325.569 71.6519 320.482 76.7273C320.183 77.0258 319.584 77.3244 319.285 77.6229C324.073 85.3852 327.065 94.6403 327.065 104.492C327.065 105.09 327.065 105.985 327.065 106.582H337.239C337.538 108.971 337.538 111.359 337.538 114.046C337.538 114.345 337.538 114.345 337.538 114.643H352.5C353.098 111.359 353.098 107.777 353.098 104.492C353.397 82.9968 344.42 63.2925 330.057 49.2606Z" fill="#FBBA00"/>
<path d="M301.326 59.71C297.436 64.7853 297.736 71.9505 302.224 76.7274C307.012 81.5042 314.193 81.8027 319.28 77.623C316.886 74.0404 314.492 70.4578 311.201 67.7708C308.508 64.7853 304.917 62.0984 301.326 59.71Z" fill="#EB5893"/>
<path d="M320.776 58.5155C315.689 53.4401 307.61 53.4401 302.523 58.5155C302.223 58.8141 301.924 59.4112 301.625 59.7097C305.216 62.0981 308.507 64.7851 311.5 67.7706C314.492 70.7561 317.185 74.0401 319.579 77.6228C319.878 77.3242 320.477 77.0257 320.776 76.7271C325.563 71.6517 325.563 63.5909 320.776 58.5155Z" fill="#E73B2B"/>
<path d="M280.683 52.5443C278.588 52.2457 276.494 52.2457 274.399 52.2457C270.808 52.2457 267.517 52.5443 264.225 53.4399V44.4834C252.855 47.4689 242.98 53.4399 234.901 61.5008C223.231 73.1443 215.75 89.5646 215.75 107.478H242.082C242.082 101.507 243.578 95.8341 245.972 90.7588C242.681 88.3704 240.586 84.4892 240.586 80.3095C240.586 73.1443 246.272 67.4718 253.453 67.4718C257.642 67.4718 261.532 69.5617 263.926 72.8457C269.013 70.4573 274.698 68.9646 280.683 68.9646V52.5443Z" fill="#00A552"/>
<path d="M245.969 89.8632C248.063 91.356 250.756 92.2516 253.45 92.2516C260.631 92.2516 266.316 86.5792 266.316 79.414C266.316 76.727 265.419 74.0401 263.923 71.9502C260.033 73.7415 256.442 76.4285 253.45 79.414C250.457 82.698 247.764 85.9821 245.969 89.8632Z" fill="#FBBA00"/>
<path d="M253.453 66.5762C246.271 66.5762 240.586 72.2486 240.586 79.4139C240.586 83.5936 242.681 87.4747 245.972 89.8631C247.767 85.982 250.461 82.3994 253.453 79.4139C256.445 76.4283 260.036 73.7414 263.926 71.9501C261.532 68.9646 257.642 66.5762 253.453 66.5762Z" fill="#328D2E"/>
<path d="M38.9025 142.11L34.4141 124.197H38.6033L41.5956 137.931L44.2887 124.197H49.0764L51.7694 137.931L54.4625 124.197H58.3525L54.1633 142.11H49.3756L46.6825 128.377L43.9894 142.409H38.9025V142.11Z" fill="#1D1D1B"/>
<path d="M70.3207 124.197C71.8168 124.197 73.0138 124.496 73.9114 124.794C75.1084 125.093 76.0061 125.989 76.6045 126.586C77.5022 127.481 77.8014 128.377 78.3999 129.571C78.9984 130.765 78.9984 131.96 78.9984 133.154C78.9984 134.348 78.6991 135.542 78.3999 136.736C78.1007 137.931 77.5022 138.826 76.6045 139.722C75.7068 140.618 74.8091 141.215 73.9114 141.513C72.7145 142.11 71.5176 142.11 70.0214 142.11C68.5253 142.11 67.3284 141.812 66.4307 141.513C65.533 141.215 64.3361 140.319 63.7376 139.722C62.8399 138.826 62.5407 137.931 61.9422 136.736C61.3438 135.542 61.3438 134.348 61.3438 133.154C61.3438 131.661 61.643 130.467 61.9422 129.571C62.2414 128.377 62.8399 127.481 63.7376 126.586C64.6353 125.69 65.533 125.093 66.4307 124.794C67.6276 124.197 68.8245 124.197 70.3207 124.197ZM65.2337 133.154C65.2337 134.049 65.2337 134.647 65.533 135.244C65.8322 135.841 66.1314 136.438 66.4307 137.035C66.7299 137.632 67.3284 137.931 67.9268 138.229C68.5253 138.528 69.423 138.826 70.3207 138.826C71.2184 138.826 71.8168 138.826 72.4153 138.528C73.0138 138.229 73.6122 137.931 73.9114 137.334C74.2107 136.736 74.5099 136.139 74.8091 135.542C75.1084 134.945 75.1084 134.049 75.1084 133.452C75.1084 132.557 75.1084 131.96 74.8091 131.362C74.5099 130.765 74.2107 130.168 73.9114 129.571C73.6122 128.974 73.0138 128.676 72.4153 128.377C71.8168 128.078 70.9191 127.78 70.0214 127.78C69.1237 127.78 68.5253 128.078 67.9268 128.377C67.3284 128.676 66.7299 129.273 66.4307 129.571C66.1314 130.168 65.8322 130.765 65.533 131.362C65.2337 131.661 65.2337 132.557 65.2337 133.154Z" fill="#1D1D1B"/>
<path d="M91.2698 124.197C91.8683 124.197 92.1675 124.197 92.766 124.197C93.3644 124.197 93.6637 124.197 94.2621 124.496C94.8606 124.496 95.1598 124.794 95.4591 124.794C95.7583 125.093 96.3568 125.391 96.656 125.69C97.2544 126.287 97.5537 126.884 97.8529 127.481C98.1521 128.078 98.1521 128.974 98.1521 129.87C98.1521 130.765 97.8529 131.661 97.5537 132.557C97.2544 133.154 96.656 133.751 96.0575 134.348C95.4591 134.647 94.8606 135.244 94.2621 135.244L98.1521 142.11H93.9629L90.3721 135.841H87.3798V142.11H83.7891V124.197H91.2698ZM91.2698 132.557C91.8683 132.557 92.1675 132.557 92.4668 132.557C92.766 132.557 93.3644 132.258 93.6637 132.258C93.9629 131.96 94.2621 131.661 94.2621 131.362C94.5614 131.064 94.5614 130.765 94.5614 130.168C94.5614 129.571 94.5614 129.273 94.2621 128.974C93.9629 128.676 93.9629 128.377 93.6637 128.078C93.3644 127.78 93.0652 127.78 92.766 127.78C92.4668 127.78 91.8683 127.78 91.5691 127.78H87.9783V132.855H91.2698V132.557Z" fill="#1D1D1B"/>
<path d="M106.827 138.826H115.505V142.11H102.938V124.197H106.528V138.826H106.827Z" fill="#1D1D1B"/>
<path d="M119.992 142.11V124.197H126.575C127.473 124.197 128.371 124.197 128.969 124.496C129.867 124.496 130.465 124.794 131.363 125.391C132.859 125.989 133.757 127.183 134.355 128.377C134.954 129.87 135.253 131.362 135.253 133.154C135.253 136.139 134.654 138.229 133.158 139.722C131.662 141.215 129.568 142.11 126.575 142.11H119.992ZM126.875 138.826C127.174 138.826 127.473 138.826 127.772 138.826C128.071 138.826 128.371 138.826 128.67 138.826C128.969 138.826 129.268 138.826 129.568 138.528C129.867 138.528 129.867 138.229 130.166 138.229C130.764 137.632 131.363 137.035 131.662 136.139C131.961 135.244 132.261 134.348 132.261 133.154C132.261 132.258 132.261 131.362 131.961 130.765C131.662 130.168 131.363 129.571 131.064 128.974C130.465 128.377 129.867 128.078 129.268 127.78C128.67 127.481 127.772 127.481 127.174 127.481H124.181V138.826H126.875Z" fill="#1D1D1B"/>
<path d="M159.794 124.197H163.983L157.4 135.243V141.811H153.81V135.243L147.227 123.898H151.416L155.904 131.661L159.794 124.197Z" fill="#1D1D1B"/>
<path d="M174.75 124.197C176.247 124.197 177.443 124.496 178.341 124.794C179.538 125.093 180.436 125.989 181.034 126.586C181.932 127.481 182.231 128.377 182.83 129.571C183.428 130.765 183.428 131.96 183.428 133.154C183.428 134.348 183.129 135.542 182.83 136.736C182.53 137.931 181.932 138.826 181.034 139.722C180.137 140.618 179.239 141.215 178.341 141.513C177.144 142.11 175.947 142.11 174.451 142.11C172.955 142.11 171.758 141.812 170.86 141.513C169.963 141.215 168.766 140.319 168.167 139.722C167.27 138.826 166.97 137.931 166.372 136.736C165.773 135.542 165.773 134.348 165.773 133.154C165.773 131.661 166.073 130.467 166.372 129.571C166.671 128.377 167.27 127.481 168.167 126.586C169.065 125.69 169.963 125.093 170.86 124.794C172.057 124.197 173.553 124.197 174.75 124.197ZM169.663 133.154C169.663 134.049 169.663 134.647 169.963 135.244C170.262 135.841 170.561 136.438 170.86 137.035C171.16 137.632 171.758 137.931 172.357 138.229C172.955 138.528 173.853 138.826 174.75 138.826C175.648 138.826 176.247 138.826 176.845 138.528C177.443 138.229 178.042 137.931 178.341 137.334C178.64 136.736 178.94 136.139 179.239 135.542C179.538 134.945 179.538 134.049 179.538 133.452C179.538 132.557 179.538 131.96 179.239 131.362C178.94 130.765 178.64 130.168 178.341 129.571C178.042 128.974 177.443 128.676 176.845 128.377C176.247 128.078 175.349 127.78 174.451 127.78C173.553 127.78 172.955 128.078 172.357 128.377C171.758 128.676 171.16 129.273 170.86 129.571C170.561 130.168 170.262 130.765 169.963 131.362C169.663 131.661 169.663 132.557 169.663 133.154Z" fill="#1D1D1B"/>
<path d="M195.996 142.409C194.5 142.409 193.303 142.11 192.406 141.812C191.508 141.513 190.61 140.916 190.012 140.02C189.413 139.423 188.815 138.528 188.815 137.334C188.516 136.438 188.516 135.244 188.516 133.751V124.197H192.106V134.049C192.106 134.647 192.106 135.244 192.406 135.841C192.406 136.438 192.705 137.035 193.004 137.334C193.303 137.931 193.603 138.229 194.201 138.528C194.799 138.826 195.398 138.826 196.296 138.826C197.193 138.826 197.792 138.826 198.39 138.528C198.989 138.229 199.288 137.931 199.587 137.334C199.886 136.736 200.186 136.438 200.186 135.841C200.186 135.244 200.485 134.647 200.485 134.049V124.197H204.076V133.751C204.076 134.945 204.076 136.139 203.776 137.334C203.477 138.528 203.178 139.423 202.579 140.02C201.981 140.618 201.083 141.215 200.186 141.812C198.689 142.11 197.493 142.409 195.996 142.409Z" fill="#1D1D1B"/>
<path d="M207.969 127.481V124.197H222.93V127.481H217.245V142.11H213.654V127.481H207.969Z" fill="#1D1D1B"/>
<path d="M230.411 131.661H238.191V124.197H241.782V142.11H238.191V134.945H230.411V142.11H226.82V124.197H230.411V131.661Z" fill="#1D1D1B"/>
<path d="M48.7786 153.156V156.44H39.8017V161.217H47.2825V164.501H39.8017V171.368H36.2109V153.455H48.7786V153.156Z" fill="#1D1D1B"/>
<path d="M65.8357 153.156V156.44H56.8587V160.62H64.938V163.904H56.8587V167.785H65.8357V171.069H52.9688V153.156H65.8357Z" fill="#1D1D1B"/>
<path d="M80.198 158.53C80.198 157.635 79.8988 157.336 79.3003 157.038C78.7019 156.739 78.1034 156.441 77.2057 156.441C76.9065 156.441 76.6073 156.441 76.308 156.441C76.0088 156.441 75.7096 156.739 75.4103 156.739C75.1111 157.038 74.8119 157.038 74.8119 157.336C74.5126 157.635 74.5126 157.933 74.5126 158.232C74.5126 158.53 74.5126 158.829 74.8119 159.128C75.1111 159.426 75.4103 159.725 75.7096 159.725C76.0088 159.725 76.308 160.023 76.6073 160.023C76.9065 160.023 77.2057 160.322 77.5049 160.322C77.8042 160.322 78.1034 160.322 78.4026 160.62C78.7019 160.62 79.0011 160.62 79.0011 160.919C79.5996 161.217 80.4973 161.217 81.0957 161.516C81.6942 161.814 82.2926 162.113 82.8911 162.412C83.4896 162.71 83.7888 163.307 84.088 163.904C84.3873 164.501 84.6865 165.397 84.6865 166.293C84.6865 167.188 84.3873 168.084 84.088 168.98C83.7888 169.577 83.1903 170.174 82.5919 170.771C81.9934 171.07 81.0957 171.667 80.4973 171.667C79.5996 171.965 78.7019 171.965 77.8042 171.965C76.9065 171.965 76.0088 171.965 75.1111 171.667C74.2134 171.368 73.6149 171.07 73.0165 170.472C72.418 169.875 71.8196 169.278 71.5203 168.681C71.2211 168.084 70.9219 167.188 70.9219 166.293H74.8119C74.8119 166.591 75.1111 167.188 75.4103 167.487C75.7096 167.786 76.0088 168.084 76.308 168.084C76.6073 168.383 76.9065 168.383 77.5049 168.383C77.8042 168.383 78.4026 168.383 78.7019 168.681C79.0011 168.681 79.5996 168.681 79.8988 168.681C80.198 168.681 80.4973 168.681 80.7965 168.383C81.0957 168.084 81.395 168.084 81.395 167.786C81.6942 167.487 81.6942 167.188 81.6942 166.89C81.6942 166.293 81.395 165.994 81.0957 165.696C80.7965 165.397 80.4973 165.397 79.8988 165.099C79.5996 165.099 79.3003 165.099 79.3003 164.8C79.0011 164.8 79.0011 164.8 78.7019 164.501C78.4026 164.501 78.4026 164.501 78.1034 164.501C77.8042 164.501 77.5049 164.501 77.2057 164.203C76.6073 163.904 76.0088 163.904 75.1111 163.606C74.5126 163.307 73.9142 163.009 73.3157 162.71C72.7173 162.113 72.1188 161.814 71.8196 160.919C71.5203 160.322 71.2211 159.426 71.5203 158.53C71.5203 157.635 71.8196 156.739 72.1188 156.142C72.418 155.545 73.0165 154.948 73.615 154.649C74.2134 154.351 75.1111 154.052 75.7096 153.754C76.6073 153.455 77.2057 153.455 78.1034 153.455C79.0011 153.455 79.8988 153.455 80.4973 153.754C81.0957 154.052 81.9934 154.351 82.5919 154.649C83.1903 154.948 83.4896 155.545 84.088 156.441C84.3873 157.038 84.6865 157.933 84.6865 158.829H80.198V158.53Z" fill="#1D1D1B"/>
<path d="M87.375 156.44V153.156H102.337V156.44H96.6511V171.069H93.0604V156.44H87.375Z" fill="#1D1D1B"/>
<path d="M110.122 171.069H106.531V153.156H110.122V171.069Z" fill="#1D1D1B"/>
<path d="M127.772 153.156H131.662L124.78 171.069H120.89L114.008 153.156H118.197L122.985 166.591L127.772 153.156Z" fill="#1D1D1B"/>
<path d="M137.649 167.785L136.452 171.069H132.562L139.445 153.156H143.634L150.516 171.069H146.626L145.429 167.785H137.649ZM138.846 164.501H143.933L141.24 157.037L138.846 164.501Z" fill="#1D1D1B"/>
<path d="M157.999 167.785H166.677V171.069H154.109V153.156H157.7V167.785H157.999Z" fill="#1D1D1B"/>
<path d="M184.03 163.904C184.329 163.605 184.928 163.307 185.227 162.71C185.526 162.411 186.124 161.814 186.424 161.515C186.723 161.217 187.022 160.62 187.321 160.321C187.621 159.724 187.621 159.426 187.621 158.828C187.621 157.933 187.321 157.336 187.022 156.739C186.424 156.44 185.825 156.141 184.928 156.141C184.03 156.141 183.431 156.44 183.132 156.739C182.833 157.336 182.534 157.634 182.534 158.231H179.242C179.242 157.336 179.541 156.44 179.841 155.544C180.14 154.947 180.738 154.35 181.636 153.753C182.234 153.455 182.833 153.156 183.431 153.156C184.03 153.156 184.628 152.857 185.526 152.857C187.321 152.857 188.818 153.455 190.014 154.35C190.613 154.649 190.912 155.246 191.211 155.843C191.511 156.44 191.511 157.336 191.511 158.231C191.511 158.828 191.511 159.426 191.211 160.023C190.912 160.62 190.912 161.217 190.613 161.515C190.314 161.814 190.314 162.112 190.014 162.411C189.715 162.71 189.416 163.008 189.416 163.307C189.117 163.904 188.818 164.202 188.518 164.202C188.219 164.501 187.92 164.799 187.621 165.098C187.022 165.695 186.424 165.994 185.825 166.591C185.227 167.188 184.628 167.486 184.329 167.785H191.211V171.069H179.242V168.084L184.03 163.904Z" fill="#1D1D1B"/>
<path d="M202.885 153.156C203.782 153.156 204.979 153.455 205.877 153.753C206.775 154.052 207.373 154.649 207.972 155.545C208.57 156.44 209.169 157.336 209.468 158.53C209.767 159.724 210.066 160.919 210.066 162.71C210.066 164.203 209.767 165.695 209.468 166.89C209.169 168.084 208.57 168.979 207.972 169.577C207.373 170.174 206.775 170.771 205.877 171.069C204.979 171.368 204.082 171.666 202.885 171.666C201.688 171.666 200.79 171.368 199.892 171.069C198.995 170.771 198.396 170.174 197.798 169.577C197.199 168.979 196.601 167.785 196.302 166.89C196.002 165.695 195.703 164.501 195.703 162.71C195.703 161.217 196.002 159.724 196.302 158.53C196.601 157.336 197.199 156.44 197.798 155.545C198.396 154.948 199.294 154.35 199.892 153.753C200.79 153.156 201.688 153.156 202.885 153.156ZM202.885 168.084C204.082 168.084 204.68 167.487 205.279 166.591C205.877 165.695 206.176 164.203 206.176 162.113C206.176 160.023 205.877 158.53 205.279 157.635C204.68 156.739 203.782 156.142 202.885 156.142C201.688 156.142 201.089 156.739 200.491 157.635C199.892 158.53 199.593 160.023 199.593 162.113C199.593 164.203 199.892 165.695 200.491 166.591C200.79 167.487 201.688 168.084 202.885 168.084Z" fill="#1D1D1B"/>
<path d="M218.438 163.904C218.738 163.605 219.336 163.307 219.635 162.71C219.935 162.411 220.533 161.814 220.832 161.515C221.132 161.217 221.431 160.62 221.73 160.321C222.029 159.724 222.029 159.426 222.029 158.828C222.029 157.933 221.73 157.336 221.431 156.739C220.832 156.44 220.234 156.141 219.336 156.141C218.438 156.141 217.84 156.44 217.541 156.739C216.942 157.037 216.942 157.634 216.643 158.231H213.352C213.352 157.336 213.651 156.44 213.95 155.544C214.249 154.947 214.848 154.35 215.745 153.753C216.344 153.455 216.942 153.156 217.541 153.156C218.139 153.156 218.738 152.857 219.635 152.857C221.431 152.857 222.927 153.455 224.124 154.35C224.722 154.649 225.022 155.246 225.321 155.843C225.62 156.44 225.62 157.336 225.62 158.231C225.62 158.828 225.62 159.426 225.321 160.023C225.022 160.62 225.022 161.217 224.722 161.515C224.423 161.814 224.423 162.112 224.124 162.411C223.825 162.71 223.525 163.008 223.525 163.307C223.226 163.605 222.927 163.904 222.927 163.904C222.628 164.202 222.328 164.501 222.029 164.799C221.431 165.397 220.832 165.695 220.234 166.292C219.635 166.889 219.037 167.188 218.738 167.486H225.62V170.77H213.651V167.785L218.438 163.904Z" fill="#1D1D1B"/>
<path d="M242.081 164.8H244.176V168.084H242.081V171.368H238.49V168.084H229.812V165.397L237.892 153.455H242.38V164.8H242.081ZM234.002 164.8H238.49V157.635L234.002 164.8Z" fill="#1D1D1B"/>
</svg>
