<svg width="520" height="569" viewBox="0 0 520 569" fill="none" xmlns="http://www.w3.org/2000/svg">
<path d="M205.781 125.78V150.336C215.067 148.54 224.353 147.342 233.938 147.342C239.929 147.342 245.62 147.641 251.311 148.54V119.79C235.436 119.79 220.459 121.886 205.781 125.78Z" fill="#328D2E"/>
<path d="M407.071 298.575H378.915C378.615 306.062 377.716 313.249 376.219 320.437H408.269C408.269 319.838 408.269 319.239 408.269 318.64C408.269 312.052 407.67 305.463 407.071 298.575Z" fill="#E73B2B"/>
<path d="M375.922 320.737C377.42 313.549 378.318 306.062 378.618 298.875H333.687C334.885 305.463 335.484 312.351 335.484 318.94C335.484 336.609 331.291 353.08 323.802 367.754C332.789 374.043 338.779 384.824 338.779 396.803C338.779 416.269 322.904 432.141 303.434 432.141C291.452 432.141 280.968 426.151 274.378 417.167C259.701 424.654 243.226 428.847 225.554 428.847C218.664 428.847 212.074 428.248 205.484 427.05V500.121C212.074 500.72 218.964 501.319 225.554 501.319C275.876 501.319 321.106 480.656 354.056 447.713C386.706 415.37 407.374 370.449 407.673 321.036H375.922V320.737Z" fill="#EB5893"/>
<path d="M324.105 367.754C318.414 363.562 311.225 361.166 303.736 361.166C284.266 361.166 268.391 377.038 268.391 396.504C268.391 404.29 270.787 411.178 274.981 417.168C285.464 411.777 295.349 404.59 303.437 396.204C311.824 387.819 318.713 378.236 324.105 367.754Z" fill="#00A552"/>
<path d="M303.735 432.141C323.205 432.141 339.081 416.269 339.081 396.803C339.081 384.824 333.09 374.342 324.104 367.754C318.712 378.235 311.523 388.118 303.136 396.204C294.749 404.589 285.164 411.777 274.68 417.167C281.27 426.151 291.753 432.141 303.735 432.141Z" fill="#971D40"/>
<path d="M386.703 139.855C347.763 100.025 293.846 75.4678 233.938 75.4678C224.652 75.4678 215.067 76.0667 205.781 77.2646V125.779C220.459 121.886 235.436 119.79 251.311 119.79V148.539C271.979 151.235 291.15 158.123 307.924 168.604C308.823 167.406 309.721 166.508 310.92 165.31C324.698 151.534 347.164 151.534 361.242 165.31C375.021 179.086 375.021 201.546 361.242 215.621C360.343 216.52 359.145 217.718 357.947 218.616C371.426 240.178 378.915 265.634 378.915 292.886C378.915 294.982 378.915 297.078 378.615 298.875H406.772C407.371 305.464 407.97 312.351 407.97 318.94C407.97 319.539 407.97 320.138 407.97 320.737H449.307C450.505 311.453 451.104 302.169 451.104 292.586C451.104 232.691 426.542 178.487 386.703 139.855Z" fill="#FBBA00"/>
<path d="M307.928 168.604C297.145 182.38 298.044 202.744 310.924 215.622C323.804 228.499 343.873 229.398 357.951 218.617C351.661 208.434 344.173 199.151 335.786 191.065C327.398 182.38 318.113 174.893 307.928 168.604Z" fill="#EB5893"/>
<path d="M361.248 165.31C347.469 151.535 325.003 151.535 310.925 165.31C310.026 166.209 308.828 167.407 307.93 168.605C318.114 174.894 327.4 182.38 335.487 190.766C343.874 198.851 351.363 208.135 357.653 218.317C358.851 217.419 359.75 216.52 360.948 215.322C375.026 201.547 375.026 179.086 361.248 165.31Z" fill="#E73B2B"/>
<path d="M251.317 148.539C245.626 147.94 239.635 147.341 233.944 147.341C224.359 147.341 215.073 148.24 205.787 150.336V125.779C174.635 133.865 147.077 150.336 124.912 172.198C92.5613 204.541 72.4922 249.462 72.4922 298.576H144.681C144.681 281.805 148.575 266.232 155.465 252.157C146.478 245.868 140.488 235.087 140.488 223.408C140.488 203.942 156.363 188.07 175.833 188.07C187.815 188.07 198.299 194.059 204.589 203.044C218.667 196.156 234.243 192.262 251.018 192.262L251.317 148.539Z" fill="#00A552"/>
<path d="M155.461 252.157C161.152 256.35 168.341 258.746 176.129 258.746C195.599 258.746 211.475 242.874 211.475 223.408C211.475 215.622 209.078 208.734 204.885 202.744C194.101 207.835 184.516 215.023 176.129 223.408C167.742 231.793 160.553 241.376 155.461 252.157Z" fill="#FBBA00"/>
<path d="M176.127 188.07C156.657 188.07 140.781 203.942 140.781 223.408C140.781 235.387 146.772 245.869 155.758 252.158C160.85 241.377 168.039 231.793 176.426 223.408C184.814 215.023 194.698 208.135 205.182 202.745C198.293 193.76 187.809 188.07 176.127 188.07Z" fill="#328D2E"/>
<path d="M75.4853 338.706L70.9922 320.737H75.1857L78.1811 334.513L80.877 320.737H85.9691L88.665 334.513L91.3608 320.737H95.2549L91.0613 338.706H86.2687L83.5728 324.63L80.877 338.706H75.4853Z" fill="#EEE"/>
<path d="M106.934 320.438C108.432 320.438 109.63 320.737 110.529 321.036C111.727 321.336 112.625 322.234 113.224 322.833C113.824 323.432 114.423 324.63 115.022 325.828C115.621 327.026 115.621 328.224 115.621 329.422C115.621 330.62 115.321 332.117 115.022 333.015C114.722 333.914 114.123 335.112 113.224 336.01C112.326 336.909 111.427 337.508 110.529 337.807C109.63 338.106 108.132 338.406 106.635 338.406C105.137 338.406 103.939 338.106 102.741 337.807C101.542 337.208 100.644 336.609 100.045 336.01C99.1461 335.112 98.8466 334.213 98.2475 333.015C97.6484 331.817 97.6484 330.62 97.6484 329.422C97.6484 327.924 97.948 326.726 98.2475 325.828C98.5471 324.63 99.1461 323.732 100.045 322.833C100.943 321.935 101.842 321.336 102.741 321.036C103.639 320.737 105.736 320.438 106.934 320.438ZM101.842 329.721C101.842 330.62 101.842 331.219 102.142 331.818C102.441 332.416 102.741 333.015 103.04 333.614C103.34 334.213 103.939 334.513 104.538 334.812C105.137 335.112 106.036 335.411 106.934 335.411C107.833 335.411 108.432 335.411 109.031 335.112C109.63 334.812 110.229 334.513 110.529 333.914C110.828 333.315 111.128 332.716 111.427 332.117C111.727 331.518 111.727 330.62 111.727 329.721C111.727 328.823 111.727 328.224 111.427 327.625C111.128 327.026 110.828 326.427 110.529 325.828C110.229 325.229 109.63 324.93 109.031 324.63C108.432 324.331 107.533 324.031 106.635 324.031C105.736 324.031 105.137 324.331 104.538 324.63C103.939 324.93 103.34 325.529 103.04 325.828C102.741 326.427 102.441 327.026 102.142 327.625C102.142 328.224 101.842 328.823 101.842 329.721Z" fill="#EEE"/>
<path d="M127.903 320.737C128.502 320.737 128.801 320.737 129.4 320.737C129.999 320.737 130.299 320.737 130.898 321.037C131.497 321.037 131.797 321.336 132.096 321.336C132.396 321.636 132.995 321.935 133.294 322.235C133.893 322.834 134.193 323.433 134.492 324.032C134.792 324.93 134.792 325.529 134.792 326.427C134.792 327.625 134.492 328.224 134.193 329.123C133.893 330.021 133.294 330.32 132.695 330.919C132.096 331.219 131.497 331.818 130.898 331.818L134.792 338.706H130.598L127.004 332.117H124.009V338.706H120.414V320.737H127.903ZM127.903 329.123C128.502 329.123 128.801 329.123 129.101 329.123C129.4 329.123 129.999 328.823 130.299 328.823C130.598 328.524 130.898 328.224 130.898 327.925C131.197 327.625 131.197 327.326 131.197 326.727C131.197 326.128 131.197 325.828 130.898 325.529C130.598 325.229 130.598 324.93 130.299 324.63C129.999 324.331 129.7 324.331 129.4 324.331C129.101 324.331 128.502 324.331 128.202 324.331H124.608V329.422H127.903V329.123Z" fill="#EEE"/>
<path d="M143.777 335.412H152.463V338.706H139.883V320.737H143.777V335.412Z" fill="#EEE"/>
<path d="M156.961 338.706V320.737H163.551C164.449 320.737 165.348 320.737 165.947 321.037C166.546 321.336 167.445 321.336 168.343 321.935C169.841 322.534 170.74 323.732 171.339 324.93C171.938 326.427 172.237 327.925 172.237 329.722C172.237 332.716 171.339 334.813 169.841 336.31C168.343 337.807 166.247 338.706 163.251 338.706H156.961ZM163.85 335.412C164.15 335.412 164.449 335.412 164.749 335.412C165.048 335.412 165.348 335.412 165.648 335.412C165.947 335.412 166.247 335.412 166.546 335.112C166.846 334.813 166.846 334.813 167.145 334.813C167.744 334.214 168.343 333.615 168.643 332.716C168.942 331.818 169.242 330.919 169.242 329.722C169.242 328.823 169.242 327.925 168.943 327.326C168.643 326.727 168.343 326.128 168.044 325.529C167.445 324.93 166.846 324.63 166.247 324.331C165.648 324.032 164.749 324.032 164.15 324.032H161.154V335.412H163.85Z" fill="#EEE"/>
<path d="M83.8697 350.085H88.0633L81.4734 361.465V368.053H77.8789V361.465L71.2891 350.085H75.4826L79.9757 357.871L83.8697 350.085Z" fill="#EEE"/>
<path d="M98.8482 349.786C100.346 349.786 101.544 350.086 102.443 350.385C103.641 350.685 104.539 351.583 105.139 352.182C105.738 352.781 106.337 353.979 106.936 355.177C107.535 356.375 107.535 357.572 107.535 358.77C107.535 359.968 107.235 361.466 106.936 362.364C106.636 363.262 106.037 364.46 105.139 365.359C104.24 366.257 103.341 366.856 102.443 367.156C101.544 367.455 100.046 367.755 98.5487 367.755C97.051 367.755 95.8528 367.455 94.6547 367.156C93.4565 366.557 92.5579 365.958 91.9588 365.359C91.0602 364.46 90.7607 363.562 90.1616 362.364C89.5625 361.166 89.5625 359.968 89.5625 358.77C89.5625 357.273 89.862 356.075 90.1616 355.177C90.4611 353.979 91.0602 353.08 91.9588 352.182C92.8574 351.283 93.7561 350.685 94.6547 350.385C96.4519 350.086 97.6501 349.786 98.8482 349.786ZM93.756 359.07C93.756 359.968 93.756 360.567 94.0556 361.166C94.3551 361.765 94.6547 362.364 94.9542 362.963C95.2537 363.562 95.8528 363.861 96.4519 364.161C97.051 364.46 97.9496 364.76 98.8482 364.76C99.7468 364.76 100.346 364.76 100.945 364.46C101.544 364.161 102.143 363.861 102.443 363.262C102.742 362.664 103.042 362.065 103.341 361.466C103.641 360.867 103.641 359.968 103.641 359.07C103.641 358.171 103.641 357.572 103.341 356.973C103.042 356.375 102.742 355.776 102.443 355.177C102.143 354.578 101.544 354.278 100.945 353.979C100.346 353.679 99.4473 353.38 98.5487 353.38C97.6501 353.38 97.051 353.679 96.4519 353.979C95.8528 354.278 95.2537 354.877 94.9542 355.177C94.6547 355.776 94.3551 356.375 94.0556 356.973C93.756 357.572 93.756 358.171 93.756 359.07Z" fill="#EEE"/>
<path d="M120.418 368.353C118.92 368.353 117.722 368.053 116.824 367.754C115.925 367.454 115.026 366.855 114.427 365.957C113.828 365.358 113.229 364.46 113.229 363.262C113.229 362.064 112.93 361.165 112.93 359.668V350.085H116.524V359.968C116.524 360.567 116.524 361.165 116.824 361.764C116.824 362.363 117.123 362.962 117.423 363.262C117.722 363.561 118.022 364.16 118.621 364.46C119.22 364.759 119.819 364.759 120.718 364.759C121.616 364.759 122.215 364.759 122.814 364.46C123.414 364.16 123.713 363.861 124.013 363.262C124.312 362.663 124.612 362.363 124.612 361.764C124.612 361.165 124.911 360.567 124.911 359.968V350.085H128.506V359.668C128.506 360.866 128.506 362.064 128.206 363.262C127.907 364.46 127.607 365.358 127.008 365.957C126.409 366.556 125.51 367.155 124.612 367.754C122.814 368.053 121.616 368.353 120.418 368.353Z" fill="#EEE"/>
<path d="M132.102 353.379V350.085H147.079V353.379H141.387V368.053H137.793V353.379H132.102Z" fill="#EEE"/>
<path d="M154.86 357.572H162.948V350.085H166.542V368.053H162.948V360.866H154.86V368.053H151.266V350.085H154.86V357.572Z" fill="#EEE"/>
<path d="M85.3697 379.434V382.728H76.3835V387.519H83.872V390.814H76.3835V397.702H72.7891V379.733H85.3697V379.434Z" fill="#EEE"/>
<path d="M102.74 379.434V382.728H93.4538V386.92H101.541V390.215H93.4538V394.108H102.74V397.402H89.8594V379.434H102.74Z" fill="#EEE"/>
<path d="M116.82 384.525C116.82 383.626 116.52 383.327 115.921 383.027C115.322 382.728 114.723 382.428 113.824 382.428C113.525 382.428 113.225 382.428 112.926 382.428C112.626 382.428 112.327 382.728 112.027 382.728C111.727 382.728 111.428 383.027 111.428 383.327C111.128 383.626 111.128 383.926 111.128 384.225C111.128 384.525 111.128 384.824 111.428 385.124C111.727 385.423 112.027 385.723 112.327 385.723C112.626 385.723 112.926 386.022 113.225 386.022C113.525 386.022 113.824 386.321 114.124 386.321C114.423 386.321 114.723 386.322 115.022 386.621C115.322 386.621 115.621 386.621 115.621 386.92C116.221 387.22 117.119 387.22 117.718 387.519C118.317 387.819 118.916 388.118 119.515 388.418C120.115 388.717 120.414 389.316 120.714 389.915C121.013 390.514 121.313 391.413 121.313 392.311C121.313 393.209 121.013 394.108 120.714 395.006C120.414 395.605 119.815 396.204 119.216 396.803C118.617 397.103 117.718 397.702 117.119 397.702C116.52 397.702 115.322 398.001 114.423 398.001C113.525 398.001 112.626 398.001 111.727 397.702C110.829 397.402 110.23 397.103 109.331 396.504C108.732 395.905 108.133 395.306 107.833 394.707C107.534 394.108 107.234 393.209 107.234 392.311H111.128C111.128 392.61 111.428 393.209 111.727 393.509C112.027 393.808 112.327 394.108 112.626 394.108C112.926 394.407 113.225 394.407 113.824 394.407C114.124 394.407 114.723 394.407 115.022 394.707C115.322 394.707 115.921 394.707 116.221 394.707C116.52 394.707 116.82 394.707 117.119 394.407C117.419 394.407 117.718 394.108 117.718 393.808C117.718 393.509 118.018 393.209 118.018 392.91C118.018 392.311 117.718 392.012 117.419 391.712C117.119 391.413 116.82 391.413 116.221 391.113C115.921 391.113 115.621 391.113 115.621 390.814C115.322 390.814 115.322 390.814 115.022 390.514C114.723 390.514 114.723 390.514 114.423 390.514C114.124 390.514 113.824 390.514 113.525 390.215C112.926 389.915 112.327 389.915 111.428 389.616C110.829 389.316 110.23 389.017 109.631 388.717C109.032 388.118 108.433 387.819 108.133 386.92C107.833 386.321 107.534 385.423 107.833 384.525C107.833 383.626 108.133 382.728 108.433 382.129C108.732 381.53 109.331 380.931 109.93 380.631C110.529 380.332 111.428 380.033 112.027 379.733C112.926 379.434 113.525 379.434 114.423 379.434C115.322 379.434 116.221 379.434 116.82 379.733C117.419 380.033 118.317 380.332 118.916 380.631C119.515 380.931 119.815 381.53 120.414 382.428C120.714 383.027 121.013 383.926 121.013 384.824H116.82V384.525Z" fill="#EEE"/>
<path d="M124.312 382.728V379.434H139.289V382.728H133.598V397.402H130.004V382.728H124.312Z" fill="#EEE"/>
<path d="M147.079 397.402H143.484V379.434H147.079V397.402Z" fill="#EEE"/>
<path d="M164.748 379.434H168.642L161.752 397.402H157.858L150.969 379.434H155.162L159.955 392.91L164.748 379.434Z" fill="#EEE"/>
<path d="M174.631 393.809L173.433 397.103H169.539L176.428 379.135H180.622L187.511 397.103H183.617L182.419 393.809H174.631ZM175.829 390.814H180.922L178.226 383.327L175.829 390.814Z" fill="#EEE"/>
<path d="M195.003 394.108H203.69V397.402H191.109V379.434H194.704V394.108H195.003Z" fill="#EEE"/>
<path d="M76.3812 419.563C76.6808 419.264 77.2798 418.964 77.5794 418.365C77.8789 418.066 78.478 417.467 78.7775 417.167C79.0771 416.868 79.3766 416.269 79.6762 415.969C79.9757 415.67 79.9757 415.071 79.9757 414.472C79.9757 413.573 79.6762 412.975 79.3766 412.376C78.7775 412.076 78.1785 411.777 77.2798 411.777C76.3812 411.777 75.7822 412.076 75.4826 412.376C74.8835 412.675 74.8835 413.274 74.584 413.873H71.2891C71.2891 412.975 71.5886 412.076 71.8881 411.178C72.1877 410.579 72.7868 409.98 73.6854 409.381C74.2845 409.081 74.8835 408.782 75.4826 408.782C76.0817 408.782 76.6808 408.482 77.5794 408.482C79.3766 408.482 80.8743 409.081 82.0725 409.98C82.6716 410.279 82.9711 410.878 83.2706 411.477C83.5702 412.076 83.5702 412.975 83.5702 413.873C83.5702 414.472 83.5702 415.071 83.2706 415.67C82.9711 416.269 82.9711 416.868 82.6716 417.167C82.372 417.467 82.372 417.766 82.0725 418.066C81.7729 418.365 81.4734 418.665 81.4734 418.964C81.1739 419.263 80.8743 419.563 80.8743 419.563C80.5748 419.862 80.2752 420.162 79.9757 420.461C79.3766 421.06 78.7775 421.36 78.1785 421.959C77.5794 422.558 76.9803 422.857 76.6808 423.157H83.5702V426.451H71.5886V423.456L76.3812 419.563Z" fill="#EEE"/>
<path d="M94.9546 408.482C95.8532 408.482 97.0513 408.782 97.95 409.081C98.8486 409.381 99.4477 409.98 100.047 410.878C100.646 411.777 101.245 412.675 101.544 413.873C101.844 415.071 102.144 416.269 102.144 418.066C102.144 419.563 101.844 421.06 101.544 422.258C101.245 423.456 100.646 424.355 100.047 424.953C99.4477 425.552 98.549 426.151 97.95 426.75C97.0513 427.05 96.1527 427.349 94.9546 427.349C93.7564 427.349 92.8578 427.05 91.9592 426.75C91.0606 426.451 90.4615 425.852 89.8624 424.953C89.2633 424.355 88.6642 423.157 88.3647 422.258C88.0652 421.06 87.7656 419.862 87.7656 418.066C87.7656 416.568 88.0652 415.071 88.3647 413.873C88.6642 412.675 89.2633 411.777 89.8624 410.878C90.4615 409.98 91.3601 409.68 91.9592 409.081C93.1573 408.782 94.056 408.482 94.9546 408.482ZM94.9546 423.456C96.1527 423.456 96.7518 422.857 97.3509 421.959C97.95 421.06 98.2495 419.563 98.2495 417.467C98.2495 415.37 97.95 413.873 97.3509 412.975C96.7518 412.076 95.8532 411.477 94.9546 411.477C93.7564 411.477 92.8578 412.076 92.2587 412.975C91.6596 413.873 91.3601 415.37 91.3601 417.467C91.3601 419.563 91.6596 421.06 92.2587 421.959C93.1573 423.157 94.056 423.456 94.9546 423.456Z" fill="#EEE"/>
<path d="M110.834 419.563C111.134 419.264 111.733 418.964 112.033 418.365C112.332 418.066 112.931 417.467 113.231 417.167C113.53 416.868 113.83 416.269 114.129 415.969C114.429 415.67 114.429 415.071 114.429 414.472C114.429 413.573 114.129 412.975 113.83 412.376C113.231 412.076 112.632 411.777 111.733 411.777C110.834 411.777 110.235 412.076 109.936 412.376C109.337 412.675 109.337 413.274 109.037 413.873H105.742C105.742 412.975 106.042 412.076 106.341 411.178C106.641 410.579 107.24 409.98 108.138 409.381C108.738 409.081 109.337 408.782 109.936 408.782C110.535 408.782 111.134 408.482 112.033 408.482C113.83 408.482 115.327 409.081 116.526 409.98C117.125 410.279 117.424 410.878 117.724 411.477C118.023 412.076 118.023 412.975 118.023 413.873C118.023 414.472 118.023 415.071 117.724 415.67C117.424 416.269 117.424 416.868 117.125 417.167C116.825 417.467 116.825 417.766 116.526 418.066C116.226 418.365 115.927 418.665 115.927 418.964C115.627 419.263 115.327 419.563 115.327 419.563C115.028 419.862 114.728 420.162 114.429 420.461C113.83 421.06 113.231 421.36 112.632 421.959C112.033 422.558 111.433 422.857 111.134 423.157H118.023V426.451H106.042V423.456L110.834 419.563Z" fill="#EEE"/>
<path d="M134.492 420.162H136.589V423.456H134.492V426.751H130.898V423.456H122.211V420.761L130.298 408.782H134.792V420.162H134.492ZM126.105 420.162H130.598V412.975L126.105 420.162Z" fill="#EEE"/>
</svg>
